<?xml version="1.0" encoding="utf-8"?>
<!-- Generator: Adobe Illustrator 16.0.3, SVG Export Plug-In . SVG Version: 6.00 Build 0)  -->
<!DOCTYPE svg PUBLIC "-//W3C//DTD SVG 1.1//EN" "http://www.w3.org/Graphics/SVG/1.1/DTD/svg11.dtd">
<svg version="1.1" id="Ebene_1" xmlns="http://www.w3.org/2000/svg" xmlns:xlink="http://www.w3.org/1999/xlink" x="0px" y="0px"
	 width="528.387px" height="134.839px" viewBox="0 0 528.387 134.839" enable-background="new 0 0 528.387 134.839"
	 xml:space="preserve">
<g>
	<path fill="#6F6F6F" d="M144.443,68.18V34.103h16.593v4.21h-10.302v10.302h9.163v4.16h-9.163V63.97h10.302v4.21H144.443z"/>
	<path fill="#6F6F6F" d="M175.787,68.725c-7.033,0-10.649-2.773-10.649-9.064V41.483h6.043v18.375c0,3.121,1.535,4.805,4.705,4.805
		c1.387,0,2.972-0.248,3.913-0.743V41.483h6.043v25.21C183.563,67.833,179.601,68.725,175.787,68.725z"/>
	<path fill="#6F6F6F" d="M203.436,45.445c-0.793-0.347-1.783-0.545-2.725-0.545c-1.09,0-2.18,0.198-2.873,0.545V68.18h-6.042V42.87
		c2.377-1.139,5.695-1.882,10.005-1.882c1.09,0,2.377,0.099,2.873,0.148L203.436,45.445z"/>
	<path fill="#6F6F6F" d="M217.428,68.725c-7.578,0-11.293-5.845-11.293-13.918c0-8.024,3.715-13.869,11.293-13.869
		s11.293,5.844,11.293,13.869C228.721,62.88,225.006,68.725,217.428,68.725z M217.428,44.702c-3.913,0-5.25,4.408-5.25,10.006
		c0,5.597,1.337,10.005,5.25,10.005s5.25-4.408,5.25-10.005C222.678,49.16,221.341,44.702,217.428,44.702z"/>
	<path fill="#6F6F6F" d="M243.632,68.576c-1.585,0-3.12-0.298-4.012-0.595v10.848h-5.993V42.87c2.625-1.288,5.845-1.932,9.212-1.932
		c7.975,0,12.531,5.052,12.531,13.572C255.37,63.276,250.615,68.576,243.632,68.576z M242.74,44.604c-1.09,0-2.278,0.148-3.12,0.545
		v19.267c0.644,0.248,1.634,0.446,2.675,0.446c4.754,0,7.082-3.665,7.082-10.203C249.377,48.368,247.594,44.604,242.74,44.604z"/>
	<path fill="#6F6F6F" d="M269.81,68.725c-7.033,0-10.896-2.823-10.896-8.271c0-6.538,6.488-8.866,14.908-9.658v-1.437
		c0-3.12-1.733-4.508-5.102-4.508c-2.377,0-5.052,0.743-6.935,1.685l-1.337-3.566c2.477-1.139,5.845-2.031,9.015-2.031
		c6.142,0,10.005,2.774,10.005,9.212v16.643C277.239,67.932,273.821,68.725,269.81,68.725z M273.821,53.717
		c-5.943,0.644-9.213,2.427-9.213,6.538c0,3.269,1.932,5.052,5.598,5.052c1.387,0,2.773-0.297,3.615-0.742V53.717z"/>
	<path fill="#6F6F6F" d="M284.883,54.113v-4.557h12.085v4.557H284.883z"/>
	<path fill="#6F6F6F" d="M314.274,68.725c-6.786,0-11.343-4.31-11.343-10.451v-24.17h6.29v24.22c0,3.467,2.428,5.547,5.3,5.547
		c2.873,0,5.25-2.08,5.25-5.547v-24.22h5.845v24.17C325.616,64.415,321.06,68.725,314.274,68.725z"/>
	<path fill="#6F6F6F" d="M346.936,68.18V49.903c0-3.468-1.387-5.151-5.102-5.151c-1.485,0-2.773,0.198-3.913,0.693V68.18h-6.042
		v-25.26c2.773-1.189,6.24-1.932,9.955-1.932c7.776,0,11.145,3.269,11.145,8.964V68.18H346.936z"/>
	<path fill="#6F6F6F" d="M361.916,36.926c-1.832,0-3.367-1.337-3.367-3.021s1.535-3.071,3.367-3.071
		c1.833,0,3.368,1.387,3.368,3.071S363.749,36.926,361.916,36.926z M358.896,68.18V41.483h6.042V68.18H358.896z"/>
	<path fill="#6F6F6F" d="M383.24,68.18h-5.646l-8.816-26.697h6.488l4.656,17.335c0.297,1.09,0.495,2.278,0.644,3.813h0.099
		c0.148-1.436,0.347-2.674,0.693-3.813l4.953-17.335h5.746L383.24,68.18z"/>
	<path fill="#6F6F6F" d="M399.681,57.035c0.445,4.656,3.07,7.43,7.479,7.43c2.428,0,5.053-0.693,6.588-1.535l1.437,3.863
		c-2.18,1.139-5.498,1.932-8.866,1.932c-8.073,0-12.531-5.597-12.531-13.968c0-8.37,4.26-13.819,11.491-13.819
		c6.935,0,10.848,4.557,10.848,12.878v0.792L399.681,57.035z M405.079,44.554c-3.813,0-5.745,3.616-5.745,8.866v0.545l10.995-1.733
		C410.28,47.377,408.695,44.554,405.079,44.554z"/>
	<path fill="#6F6F6F" d="M432.5,45.445c-0.793-0.347-1.783-0.545-2.725-0.545c-1.09,0-2.18,0.198-2.873,0.545V68.18h-6.042V42.87
		c2.377-1.139,5.695-1.882,10.005-1.882c1.09,0,2.377,0.099,2.873,0.148L432.5,45.445z"/>
	<path fill="#6F6F6F" d="M443.193,68.725c-2.823,0-5.894-0.793-7.727-1.932l1.685-3.765c1.684,1.04,3.615,1.536,5.349,1.536
		c2.675,0,4.358-1.635,4.358-3.765c0-5.548-10.747-3.467-10.747-12.085c0-4.558,3.764-7.777,8.767-7.777
		c2.972,0,5.398,0.644,7.43,1.932l-1.536,3.417c-1.437-0.892-3.17-1.485-4.755-1.485c-2.625,0-3.962,1.535-3.962,3.517
		c0,5.25,10.995,3.318,10.995,12.085C453.05,65.01,449.187,68.725,443.193,68.725z"/>
	<path fill="#6F6F6F" d="M460.585,36.926c-1.832,0-3.367-1.337-3.367-3.021s1.535-3.071,3.367-3.071
		c1.833,0,3.368,1.387,3.368,3.071S462.418,36.926,460.585,36.926z M457.564,68.18V41.483h6.042V68.18H457.564z"/>
	<path fill="#6F6F6F" d="M477.877,68.526c-4.457,0-7.132-2.675-7.132-7.38v-15.85h-2.972v-3.814h2.972v-5.894l6.043-1.684v7.578
		h4.358v3.814h-4.358v15.85c0,2.03,0.99,3.22,2.872,3.22c0.545,0,1.04-0.1,1.486-0.248v3.813
		C480.354,68.328,479.215,68.526,477.877,68.526z"/>
	<path fill="#6F6F6F" d="M495.372,68.725c-7.033,0-10.896-2.823-10.896-8.271c0-6.538,6.488-8.866,14.908-9.658v-1.437
		c0-3.12-1.733-4.508-5.102-4.508c-2.377,0-5.052,0.743-6.935,1.685l-1.337-3.566c2.477-1.139,5.845-2.031,9.015-2.031
		c6.142,0,10.005,2.774,10.005,9.212v16.643C502.802,67.932,499.384,68.725,495.372,68.725z M491.459,38.214
		c-1.485,0-2.675-1.188-2.675-2.674s1.189-2.675,2.675-2.675c1.486,0,2.675,1.189,2.675,2.675S492.945,38.214,491.459,38.214z
		 M499.384,53.717c-5.943,0.644-9.213,2.427-9.213,6.538c0,3.269,1.932,5.052,5.598,5.052c1.387,0,2.773-0.297,3.615-0.742V53.717z
		 M499.979,38.214c-1.486,0-2.675-1.188-2.675-2.674s1.188-2.675,2.675-2.675c1.485,0,2.675,1.189,2.675,2.675
		S501.464,38.214,499.979,38.214z"/>
	<path fill="#6F6F6F" d="M518.895,68.526c-4.457,0-7.132-2.675-7.132-7.38v-15.85h-2.972v-3.814h2.972v-5.894l6.043-1.684v7.578
		h4.358v3.814h-4.358v15.85c0,2.03,0.99,3.22,2.872,3.22c0.545,0,1.04-0.1,1.486-0.248v3.813
		C521.371,68.328,520.232,68.526,518.895,68.526z"/>
	<path fill="#6F6F6F" d="M150.733,89.682v10.302h9.113v4.16h-9.113v15.404h-6.291V85.472h16.543v4.21H150.733z"/>
	<path fill="#6F6F6F" d="M165.326,119.548V80.667h6.042v38.881H165.326z"/>
	<path fill="#6F6F6F" d="M182.201,108.404c0.446,4.656,3.071,7.43,7.479,7.43c2.427,0,5.052-0.693,6.587-1.535l1.437,3.863
		c-2.179,1.139-5.497,1.932-8.865,1.932c-8.073,0-12.531-5.597-12.531-13.968c0-8.37,4.26-13.818,11.491-13.818
		c6.934,0,10.847,4.557,10.847,12.878v0.792L182.201,108.404z M187.6,95.922c-3.814,0-5.746,3.616-5.746,8.866v0.545l10.996-1.733
		C192.8,98.746,191.215,95.922,187.6,95.922z"/>
	<path fill="#6F6F6F" d="M218.439,119.548v-18.276c0-3.468-1.387-5.151-5.102-5.151c-1.485,0-2.773,0.198-3.913,0.693v22.734h-6.042
		V94.288c2.773-1.188,6.24-1.932,9.955-1.932c7.776,0,11.145,3.27,11.145,8.966v18.227H218.439z"/>
	<path fill="#6F6F6F" d="M236.312,120.093c-2.823,0-5.894-0.793-7.727-1.932l1.685-3.765c1.684,1.04,3.616,1.536,5.349,1.536
		c2.675,0,4.358-1.635,4.358-3.765c0-5.548-10.749-3.467-10.749-12.085c0-4.558,3.765-7.776,8.768-7.776
		c2.972,0,5.398,0.644,7.43,1.932l-1.536,3.417c-1.437-0.892-3.17-1.485-4.755-1.485c-2.625,0-3.962,1.535-3.962,3.517
		c0,5.25,10.995,3.318,10.995,12.085C246.168,116.378,242.305,120.093,236.312,120.093z"/>
	<path fill="#6F6F6F" d="M259.385,120.093c-3.566,0-6.786-0.793-8.767-1.932V80.667h5.993v12.829c1.437-0.693,3.219-1.04,5.052-1.04
		c6.488,0,10.698,5.052,10.698,13.026C272.361,114.447,267.755,120.093,259.385,120.093z M260.128,96.022
		c-1.288,0-2.526,0.247-3.517,0.742v19.069c0.792,0.347,1.98,0.495,3.07,0.495c4.706,0,6.687-4.11,6.687-10.352
		C266.368,99.687,264.189,96.022,260.128,96.022z"/>
	<path fill="#6F6F6F" d="M287.747,120.093c-7.033,0-10.648-2.773-10.648-9.064V92.852h6.042v18.375c0,3.121,1.536,4.805,4.706,4.805
		c1.387,0,2.972-0.248,3.912-0.743V92.852h6.043v25.21C295.523,119.202,291.562,120.093,287.747,120.093z"/>
	<path fill="#6F6F6F" d="M315.396,96.814c-0.793-0.347-1.783-0.545-2.725-0.545c-1.09,0-2.18,0.198-2.873,0.545v22.734h-6.042
		v-25.31c2.377-1.14,5.695-1.883,10.005-1.883c1.09,0,2.377,0.1,2.873,0.149L315.396,96.814z"/>
	<path fill="#6F6F6F" d="M328.562,130.693c-3.517,0-6.983-0.793-9.064-1.932l1.585-3.963c1.635,0.892,4.062,1.535,6.439,1.535
		c4.457,0,6.142-2.525,6.142-6.142v-1.485c-1.04,0.594-2.725,0.99-5.003,0.99c-6.538,0-10.748-5.002-10.748-13.076
		c0-8.816,4.606-14.313,13.076-14.313c3.27,0,6.588,0.792,8.668,1.932v25.359C339.656,126.78,335.446,130.693,328.562,130.693z
		 M333.663,96.467c-0.793-0.396-1.932-0.595-3.12-0.595c-4.606,0-6.638,3.963-6.638,10.451c0,6.34,1.932,9.758,6.34,9.758
		c1.338,0,2.576-0.347,3.418-0.843V96.467z"/>
</g>
<g>
	<path fill="#00395B" d="M34.684,121.413c4.33-2.369,20.538-17.242,35.247-34.579c4.591-5.41,8.37-11.146,9.44-13.186
		c-0.338-0.004-10.042,9.88-21.365,9.25c-3.906-0.217-7.186-3.153-7.014-6.708c-2.027,1.741-6.488,6.793-12.699,6.994
		c-1.581,0.051-5.074-0.258-6.995-3.096c-0.957-1.414-1.122-3.136-1.118-3.268c-6.383,4.682-13.301,7.683-21.289,6.192
		c-4.259-0.795-5.268-3.196-5.886-3.784L3,121.413H34.684z"/>
	<path fill="#00395B" d="M94.774,55.417c5.724-2.584,18.676-10.735,26.154-18.803V20.146c-2.682,2.938-5.193,5.977-7.507,9.101
		C108.985,35.285,102.427,44.14,94.774,55.417z"/>
	<path fill="#00395B" d="M91.577,63.003c-0.212,0.176-0.409,0.332-0.619,0.506l-3.406,5.762l12.708-0.201
		c2.031,0,3.268,0.37,3.268,2.322c0,0.824-0.094,1.684-2.867,1.834L85.83,73.553c-21.23,30.423-41.957,46.176-44.135,47.86h79.234
		V42.695c-2.121,1.813-4.276,3.576-6.467,5.28C106.26,54.427,98.57,59.464,91.577,63.003z"/>
	<path fill="#00395B" d="M3,3.484v63.075c0.963-1.575,2.146-3.156,3.642-4.85c3.618-4.095,7.146-5.987,10.44-5.987
		c1.147,0,2.442,0.289,3.268,1.29c0.946,1.146,1.386,2.44,1.261,3.64c-0.172,1.663-0.726,2.988-2.15,4.615
		c-1.337,1.529-3.367,2.911-4.844,3.956c-2.484,1.758-4.07,2.752-7.31,4.5c-0.086,0.86,0.803,2.064,1.806,2.838
		c1.096,0.732,2.688,0.845,4.05,0.845c3.868,0,9.378-1.992,16.848-6.836c0.622-0.403,1.954-1.878,3.41-3.256
		c2.309-2.185,4.758-5.561,8.851-9.551c0.379-0.482,1.651-1.536,1.784-1.628c0.745-0.516,1.464-0.291,1.464-0.291
		c0.884,0.172,1.031,0.534,1.288,0.835c0.747,0.877-0.314,2.339-0.314,2.339c-0.533,0.684-6.372,7.587-7.455,9.471
		c-1.595,2.841-1.899,3.575-1.899,5.118c0,1.864,1.028,2.71,2.223,2.808c1.41,0.115,2.073-0.125,3.922-1.219
		c2.484-1.469,3.706-2.716,5.236-3.927c1.534-1.219,3.874-3.445,7.747-7.395c4.386-4.472,5.276-5.458,6.165-6.06
		c0.927-0.628,3.296,0.43,2.895,1.978c-0.188,0.725-1.054,1.506-4.722,5.602c-2.292,2.559-3.415,4.146-3.989,6.465
		c-0.688,2.775,0.014,5.414,3.491,5.548c2.167,0.083,5.283-0.246,12.208-4.576c2.931-1.832,7.057-4.667,11.242-8.051
		c3.446-5.31,9.138-13.86,15.481-23.131c8.146-11.385,15.408-20.751,21.891-27.536V3.484H3z"/>
	<path fill="#00395B" d="M15.849,60.625c-0.076-0.008-2.97,0.214-5.503,2.895c-1.319,1.394-2.977,3.798-3.182,4.959
		C8.717,68.034,16.422,64.408,15.849,60.625z"/>
</g>
</svg>
